<svg width="105" height="16" viewBox="0 0 105 16" fill="none" xmlns="http://www.w3.org/2000/svg">
<path d="M6.01203 0.84C7.01203 0.84 7.8787 0.986666 8.61203 1.28C9.3587 1.56 10.0454 1.99333 10.672 2.58L9.27203 4.2C8.7787 3.8 8.28537 3.50667 7.79203 3.32C7.2987 3.13333 6.77203 3.04 6.21203 3.04C5.5987 3.04 5.10536 3.17333 4.73203 3.44C4.37203 3.69333 4.19203 4.06 4.19203 4.54C4.19203 4.87333 4.26536 5.14667 4.41203 5.36C4.57203 5.57333 4.84536 5.77333 5.23203 5.96C5.6187 6.14667 6.1987 6.36 6.97203 6.6C8.34537 7.04 9.37203 7.58667 10.052 8.24C10.732 8.88 11.072 9.8 11.072 11C11.072 11.8533 10.8587 12.6067 10.432 13.26C10.0054 13.9 9.38537 14.4067 8.57203 14.78C7.7587 15.14 6.80536 15.32 5.71203 15.32C4.6187 15.32 3.64536 15.1467 2.79203 14.8C1.9387 14.4533 1.20536 13.98 0.592031 13.38L2.09203 11.72C2.62536 12.1733 3.1787 12.52 3.75203 12.76C4.32536 12.9867 4.95203 13.1 5.63203 13.1C6.35203 13.1 6.92536 12.9333 7.35203 12.6C7.79203 12.2667 8.01203 11.8 8.01203 11.2C8.01203 10.8267 7.93203 10.52 7.77203 10.28C7.62537 10.0267 7.36537 9.8 6.99203 9.6C6.6187 9.4 6.0787 9.19333 5.37203 8.98C3.86536 8.51333 2.78536 7.95333 2.13203 7.3C1.49203 6.64667 1.17203 5.79333 1.17203 4.74C1.17203 3.96667 1.3787 3.28667 1.79203 2.7C2.20536 2.1 2.7787 1.64 3.51203 1.32C4.24536 1 5.0787 0.84 6.01203 0.84ZM17.5006 4.08C19.0873 4.08 20.3273 4.58 21.2206 5.58C22.114 6.56667 22.5606 7.94 22.5606 9.7C22.5606 10.82 22.354 11.8067 21.9406 12.66C21.5406 13.5 20.954 14.1533 20.1806 14.62C19.4206 15.0867 18.5206 15.32 17.4806 15.32C15.894 15.32 14.6473 14.8267 13.7406 13.84C12.8473 12.84 12.4006 11.46 12.4006 9.7C12.4006 8.58 12.6006 7.6 13.0006 6.76C13.414 5.90667 14.0006 5.24667 14.7606 4.78C15.534 4.31333 16.4473 4.08 17.5006 4.08ZM17.5006 6.2C16.7806 6.2 16.2406 6.48667 15.8806 7.06C15.534 7.62 15.3606 8.5 15.3606 9.7C15.3606 10.9 15.534 11.7867 15.8806 12.36C16.2406 12.92 16.774 13.2 17.4806 13.2C18.1873 13.2 18.714 12.92 19.0606 12.36C19.4206 11.7867 19.6006 10.9 19.6006 9.7C19.6006 8.5 19.4273 7.62 19.0806 7.06C18.734 6.48667 18.2073 6.2 17.5006 6.2ZM33.4003 15H30.9403L30.8003 13.58C30.427 14.1667 29.9736 14.6067 29.4403 14.9C28.907 15.18 28.287 15.32 27.5803 15.32C26.6203 15.32 25.887 15.0333 25.3803 14.46C24.8736 13.8733 24.6203 13.06 24.6203 12.02V4.4H27.4603V11.66C27.4603 12.22 27.5536 12.62 27.7403 12.86C27.927 13.0867 28.2203 13.2 28.6203 13.2C29.3803 13.2 30.027 12.74 30.5603 11.82V4.4H33.4003V15ZM43.3647 4.4V6.42L38.3847 12.8H43.4647L43.1847 15H35.1247V12.96L40.1047 6.58H35.5447V4.4H43.3647ZM53.0938 12.06C53.0938 12.4733 53.1538 12.78 53.2738 12.98C53.3938 13.1667 53.5938 13.3067 53.8737 13.4L53.2738 15.28C52.6471 15.2267 52.1338 15.08 51.7338 14.84C51.3471 14.6 51.0471 14.2267 50.8338 13.72C50.1404 14.7867 49.0804 15.32 47.6538 15.32C46.6004 15.32 45.7604 15.02 45.1338 14.42C44.5204 13.8067 44.2138 13.0133 44.2138 12.04C44.2138 10.88 44.6338 9.99333 45.4738 9.38C46.3138 8.76667 47.5204 8.46 49.0938 8.46H50.3138V7.94C50.3138 7.28667 50.1671 6.83333 49.8738 6.58C49.5804 6.32667 49.0938 6.2 48.4138 6.2C47.6671 6.2 46.7338 6.38667 45.6138 6.76L44.9738 4.86C46.2938 4.34 47.6004 4.08 48.8938 4.08C50.3338 4.08 51.3938 4.39333 52.0738 5.02C52.7538 5.63333 53.0938 6.55333 53.0938 7.78V12.06ZM48.4338 13.28C49.2338 13.28 49.8604 12.8867 50.3138 12.1V10.08H49.3738C47.8404 10.08 47.0738 10.6533 47.0738 11.8C47.0738 12.2667 47.1871 12.6333 47.4138 12.9C47.6538 13.1533 47.9938 13.28 48.4338 13.28ZM60.2113 0.84C61.2113 0.84 62.0779 0.986666 62.8113 1.28C63.5579 1.56 64.2446 1.99333 64.8713 2.58L63.4713 4.2C62.9779 3.8 62.4846 3.50667 61.9913 3.32C61.4979 3.13333 60.9713 3.04 60.4112 3.04C59.7979 3.04 59.3046 3.17333 58.9313 3.44C58.5713 3.69333 58.3913 4.06 58.3913 4.54C58.3913 4.87333 58.4646 5.14667 58.6113 5.36C58.7713 5.57333 59.0446 5.77333 59.4313 5.96C59.8179 6.14667 60.3979 6.36 61.1713 6.6C62.5446 7.04 63.5713 7.58667 64.2513 8.24C64.9313 8.88 65.2713 9.8 65.2713 11C65.2713 11.8533 65.0579 12.6067 64.6312 13.26C64.2046 13.9 63.5846 14.4067 62.7713 14.78C61.9579 15.14 61.0046 15.32 59.9113 15.32C58.8179 15.32 57.8446 15.1467 56.9913 14.8C56.1379 14.4533 55.4046 13.98 54.7913 13.38L56.2913 11.72C56.8246 12.1733 57.3779 12.52 57.9513 12.76C58.5246 12.9867 59.1513 13.1 59.8313 13.1C60.5513 13.1 61.1246 12.9333 61.5513 12.6C61.9913 12.2667 62.2113 11.8 62.2113 11.2C62.2113 10.8267 62.1313 10.52 61.9713 10.28C61.8246 10.0267 61.5646 9.8 61.1913 9.6C60.8179 9.4 60.2779 9.19333 59.5713 8.98C58.0646 8.51333 56.9846 7.95333 56.3313 7.3C55.6913 6.64667 55.3713 5.79333 55.3713 4.74C55.3713 3.96667 55.5779 3.28667 55.9913 2.7C56.4046 2.1 56.9779 1.64 57.7113 1.32C58.4446 1 59.2779 0.84 60.2113 0.84ZM75.3398 12.06C75.3398 12.4733 75.3998 12.78 75.5198 12.98C75.6398 13.1667 75.8398 13.3067 76.1198 13.4L75.5198 15.28C74.8932 15.2267 74.3798 15.08 73.9798 14.84C73.5932 14.6 73.2932 14.2267 73.0798 13.72C72.3865 14.7867 71.3265 15.32 69.8998 15.32C68.8465 15.32 68.0065 15.02 67.3798 14.42C66.7665 13.8067 66.4598 13.0133 66.4598 12.04C66.4598 10.88 66.8798 9.99333 67.7198 9.38C68.5598 8.76667 69.7665 8.46 71.3398 8.46H72.5598V7.94C72.5598 7.28667 72.4132 6.83333 72.1198 6.58C71.8265 6.32667 71.3398 6.2 70.6598 6.2C69.9132 6.2 68.9798 6.38667 67.8598 6.76L67.2198 4.86C68.5398 4.34 69.8465 4.08 71.1398 4.08C72.5798 4.08 73.6398 4.39333 74.3198 5.02C74.9998 5.63333 75.3398 6.55333 75.3398 7.78V12.06ZM70.6798 13.28C71.4798 13.28 72.1065 12.8867 72.5598 12.1V10.08H71.6198C70.0865 10.08 69.3198 10.6533 69.3198 11.8C69.3198 12.2667 69.4332 12.6333 69.6598 12.9C69.8998 13.1533 70.2398 13.28 70.6798 13.28ZM89.6373 4.08C90.4773 4.08 91.1507 4.36667 91.6573 4.94C92.1773 5.51333 92.4373 6.29333 92.4373 7.28V15H89.5973V7.76C89.5973 6.72 89.2507 6.2 88.5573 6.2C88.184 6.2 87.8573 6.32 87.5773 6.56C87.2973 6.8 87.0107 7.17333 86.7173 7.68V15H83.8773V7.76C83.8773 6.72 83.5307 6.2 82.8373 6.2C82.464 6.2 82.1373 6.32667 81.8573 6.58C81.5773 6.82 81.2973 7.18667 81.0173 7.68V15H78.1773V4.4H80.6373L80.8573 5.72C81.2573 5.18667 81.704 4.78 82.1973 4.5C82.704 4.22 83.284 4.08 83.9373 4.08C84.5373 4.08 85.0573 4.23333 85.4973 4.54C85.9373 4.83333 86.2573 5.25333 86.4573 5.8C86.8973 5.22667 87.3707 4.8 87.8773 4.52C88.3973 4.22667 88.984 4.08 89.6373 4.08ZM103.23 12.06C103.23 12.4733 103.29 12.78 103.41 12.98C103.53 13.1667 103.73 13.3067 104.01 13.4L103.41 15.28C102.784 15.2267 102.27 15.08 101.87 14.84C101.484 14.6 101.184 14.2267 100.97 13.72C100.277 14.7867 99.2171 15.32 97.7905 15.32C96.7371 15.32 95.8971 15.02 95.2705 14.42C94.6571 13.8067 94.3505 13.0133 94.3505 12.04C94.3505 10.88 94.7705 9.99333 95.6105 9.38C96.4505 8.76667 97.6571 8.46 99.2305 8.46H100.45V7.94C100.45 7.28667 100.304 6.83333 100.01 6.58C99.7171 6.32667 99.2305 6.2 98.5505 6.2C97.8038 6.2 96.8705 6.38667 95.7505 6.76L95.1105 4.86C96.4305 4.34 97.7371 4.08 99.0305 4.08C100.47 4.08 101.53 4.39333 102.21 5.02C102.89 5.63333 103.23 6.55333 103.23 7.78V12.06ZM98.5705 13.28C99.3705 13.28 99.9971 12.8867 100.45 12.1V10.08H99.5105C97.9771 10.08 97.2105 10.6533 97.2105 11.8C97.2105 12.2667 97.3238 12.6333 97.5505 12.9C97.7905 13.1533 98.1305 13.28 98.5705 13.28Z" fill="#3D3D3D"/>
</svg>
